<svg width="400" height="200" viewBox="0 0 400 200" xmlns="http://www.w3.org/2000/svg">
  <rect width="400" height="200" fill="#f8f9fa"/>
  
  <!-- Modern geometric shapes -->
  <polygon points="80,60 120,60 110,100 70,100" fill="none" stroke="#28a745" stroke-width="3"/>
  <circle cx="90" cy="80" r="5" fill="#28a745"/>
  
  <!-- Sleek device/gadget -->
  <rect x="140" y="70" width="60" height="30" rx="15" fill="none" stroke="#28a745" stroke-width="3"/>
  <circle cx="160" cy="85" r="4" fill="#28a745"/>
  <rect x="175" y="80" width="15" height="10" rx="2" fill="#e8f5e9"/>
  
  <!-- Modern lighting -->
  <ellipse cx="250" cy="85" rx="25" ry="15" fill="none" stroke="#28a745" stroke-width="3"/>
  <line x1="250" y1="100" x2="250" y2="120" stroke="#28a745" stroke-width="3"/>
  <path d="M235 85 Q250 70 265 85" stroke="#28a745" stroke-width="2" fill="none"/>
  
  <!-- Tech element -->
  <rect x="300" y="75" width="40" height="25" rx="5" fill="none" stroke="#28a745" stroke-width="3"/>
  <circle cx="310" cy="87" r="3" fill="#28a745"/>
  <circle cx="320" cy="87" r="3" fill="#28a745"/>
  <circle cx="330" cy="87" r="3" fill="#28a745"/>
  
  <!-- Innovation arrows -->
  <path d="M60 130 L120 130" stroke="#28a745" stroke-width="2" marker-end="url(#arrowhead2)"/>
  <path d="M140 130 L200 130" stroke="#28a745" stroke-width="2" marker-end="url(#arrowhead2)"/>
  <path d="M220 130 L280 130" stroke="#28a745" stroke-width="2" marker-end="url(#arrowhead2)"/>
  
  <defs>
    <marker id="arrowhead2" markerWidth="10" markerHeight="7" refX="9" refY="3.5" orient="auto">
      <polygon points="0 0, 10 3.5, 0 7" fill="#28a745"/>
    </marker>
  </defs>
</svg>