<svg width="400" height="200" viewBox="0 0 400 200" xmlns="http://www.w3.org/2000/svg">
  <rect width="400" height="200" fill="#f8f9fa"/>
  
  <!-- Garden planter -->
  <rect x="70" y="90" width="60" height="30" rx="5" fill="none" stroke="#28a745" stroke-width="3"/>
  <path d="M80 90 Q85 80 90 90" stroke="#28a745" stroke-width="2" fill="#e8f5e9"/>
  <path d="M100 90 Q105 80 110 90" stroke="#28a745" stroke-width="2" fill="#e8f5e9"/>
  <path d="M120 90 Q125 80 125 90" stroke="#28a745" stroke-width="2" fill="#e8f5e9"/>
  
  <!-- Watering can -->
  <ellipse cx="180" cy="100" rx="25" ry="15" fill="none" stroke="#28a745" stroke-width="3"/>
  <rect x="205" y="95" width="15" height="6" rx="3" fill="#28a745"/>
  <line x1="220" y1="98" x2="235" y2="105" stroke="#28a745" stroke-width="3"/>
  
  <!-- Garden tools -->
  <line x1="270" y1="70" x2="270" y2="120" stroke="#28a745" stroke-width="4"/>
  <ellipse cx="270" cy="65" rx="8" ry="5" fill="#28a745"/>
  <path d="M290 80 L290 110 L300 115 L300 85 Z" fill="none" stroke="#28a745" stroke-width="3"/>
  
  <!-- Sun -->
  <circle cx="330" cy="70" r="12" fill="none" stroke="#28a745" stroke-width="3"/>
  <line x1="330" y1="50" x2="330" y2="55" stroke="#28a745" stroke-width="2"/>
  <line x1="330" y1="85" x2="330" y2="90" stroke="#28a745" stroke-width="2"/>
  <line x1="310" y1="70" x2="315" y2="70" stroke="#28a745" stroke-width="2"/>
  <line x1="345" y1="70" x2="350" y2="70" stroke="#28a745" stroke-width="2"/>
</svg>