<svg width="1920" height="800" viewBox="0 0 1920 800" xmlns="http://www.w3.org/2000/svg">
  <defs>
    <linearGradient id="heroGradient2" x1="0%" y1="0%" x2="100%" y2="100%">
      <stop offset="0%" style="stop-color:#059669"/>
      <stop offset="100%" style="stop-color:#10B981"/>
    </linearGradient>
    <linearGradient id="overlayGradient2" x1="0%" y1="0%" x2="100%" y2="0%">
      <stop offset="0%" style="stop-color:rgba(0,0,0,0.5)"/>
      <stop offset="100%" style="stop-color:rgba(0,0,0,0.3)"/>
    </linearGradient>
  </defs>
  <rect width="1920" height="800" fill="url(#heroGradient2)"/>
  
  <!-- Manufacturing equipment and conveyor belts -->
  <rect x="0" y="650" width="1920" height="150" fill="#1F2937"/>
  
  <!-- Large industrial machinery -->
  <rect x="200" y="400" width="300" height="250" fill="#374151" rx="20"/>
  <rect x="600" y="350" width="400" height="300" fill="#374151" rx="20"/>
  <rect x="1100" y="380" width="350" height="270" fill="#374151" rx="20"/>
  <rect x="1550" y="420" width="280" height="230" fill="#374151" rx="20"/>
  
  <!-- Control panels -->
  <rect x="230" y="430" width="60" height="80" fill="#1F2937"/>
  <rect x="320" y="430" width="60" height="80" fill="#1F2937"/>
  <rect x="430" y="430" width="60" height="80" fill="#1F2937"/>
  <rect x="750" y="380" width="80" height="100" fill="#1F2937"/>
  <rect x="850" y="380" width="80" height="100" fill="#1F2937"/>
  
  <!-- Status lights -->
  <circle cx="260" cy="450" r="8" fill="#10B981"/>
  <circle cx="280" cy="450" r="8" fill="#EF4444"/>
  <circle cx="350" cy="450" r="8" fill="#F59E0B"/>
  <circle cx="370" cy="450" r="8" fill="#10B981"/>
  <circle cx="460" cy="450" r="8" fill="#10B981"/>
  <circle cx="480" cy="450" r="8" fill="#10B981"/>
  
  <!-- Conveyor belts -->
  <rect x="0" y="600" width="1920" height="30" fill="#6B7280"/>
  <rect x="50" y="605" width="100" height="20" fill="#4B5563"/>
  <rect x="200" y="605" width="150" height="20" fill="#4B5563"/>
  <rect x="400" y="605" width="200" height="20" fill="#4B5563"/>
  <rect x="650" y="605" width="180" height="20" fill="#4B5563"/>
  <rect x="880" y="605" width="220" height="20" fill="#4B5563"/>
  <rect x="1150" y="605" width="160" height="20" fill="#4B5563"/>
  <rect x="1360" y="605" width="190" height="20" fill="#4B5563"/>
  <rect x="1600" y="605" width="150" height="20" fill="#4B5563"/>
  
  <!-- Products on conveyor -->
  <circle cx="100" cy="615" r="8" fill="#E5E7EB"/>
  <circle cx="130" cy="615" r="8" fill="#E5E7EB"/>
  <circle cx="275" cy="615" r="8" fill="#E5E7EB"/>
  <circle cx="305" cy="615" r="8" fill="#E5E7EB"/>
  <circle cx="500" cy="615" r="8" fill="#E5E7EB"/>
  <circle cx="530" cy="615" r="8" fill="#E5E7EB"/>
  <circle cx="560" cy="615" r="8" fill="#E5E7EB"/>
  
  <!-- Overhead cranes -->
  <rect x="100" y="200" width="800" height="20" fill="#9CA3AF"/>
  <rect x="1000" y="220" width="700" height="20" fill="#9CA3AF"/>
  <rect x="300" y="200" width="20" height="200" fill="#9CA3AF"/>
  <rect x="700" y="200" width="20" height="200" fill="#9CA3AF"/>
  <rect x="1200" y="220" width="20" height="160" fill="#9CA3AF"/>
  <rect x="1500" y="220" width="20" height="200" fill="#9CA3AF"/>
  
  <!-- Dark overlay -->
  <rect width="1920" height="800" fill="url(#overlayGradient2)"/>
</svg>