<svg width="1920" height="800" viewBox="0 0 1920 800" xmlns="http://www.w3.org/2000/svg">
  <defs>
    <linearGradient id="heroGradient12" x1="0%" y1="0%" x2="100%" y2="100%">
      <stop offset="0%" style="stop-color:#7C2D12"/>
      <stop offset="100%" style="stop-color:#EA580C"/>
    </linearGradient>
    <linearGradient id="overlayGradient12" x1="0%" y1="0%" x2="100%" y2="0%">
      <stop offset="0%" style="stop-color:rgba(0,0,0,0.5)"/>
      <stop offset="100%" style="stop-color:rgba(0,0,0,0.3)"/>
    </linearGradient>
  </defs>
  <rect width="1920" height="800" fill="url(#heroGradient12)"/>
  
  <!-- Awards and recognition showcase -->
  <rect x="0" y="650" width="1920" height="150" fill="#1F2937"/>
  
  <!-- Trophy and award displays -->
  <rect x="100" y="300" width="180" height="250" fill="#F3F4F6" rx="20"/>
  <rect x="110" y="280" width="40" height="20" fill="#4B5563"/>
  <!-- Trophy -->
  <rect x="130" y="320" width="40" height="60" fill="#F59E0B"/>
  <ellipse cx="150" cy="315" rx="30" ry="15" fill="#F59E0B"/>
  <rect x="140" y="380" width="20" height="40" fill="#92400E"/>
  <rect x="125" y="420" width="50" height="15" fill="#92400E"/>
  <text x="150" y="470" text-anchor="middle" font-family="Arial" font-size="12" font-weight="bold" fill="#1F2937">Best Quality</text>
  <text x="150" y="490" text-anchor="middle" font-family="Arial" font-size="10" fill="#1F2937">2024</text>
  
  <rect x="320" y="280" width="200" height="270" fill="#F3F4F6" rx="20"/>
  <rect x="330" y="260" width="45" height="20" fill="#4B5563"/>
  <!-- Medal -->
  <circle cx="420" cy="350" r="35" fill="#F59E0B"/>
  <circle cx="420" cy="350" r="25" fill="#FBBF24"/>
  <text x="420" y="358" text-anchor="middle" font-family="Arial" font-size="16" font-weight="bold" fill="#92400E">1st</text>
  <rect x="415" y="385" width="10" height="30" fill="#EF4444"/>
  <rect x="400" y="415" width="40" height="8" fill="#EF4444"/>
  <text x="420" y="450" text-anchor="middle" font-family="Arial" font-size="12" font-weight="bold" fill="#1F2937">Innovation</text>
  <text x="420" y="470" text-anchor="middle" font-family="Arial" font-size="12" font-weight="bold" fill="#1F2937">Excellence</text>
  <text x="420" y="490" text-anchor="middle" font-family="Arial" font-size="10" fill="#1F2937">2023</text>
  
  <rect x="560" y="320" width="170" height="230" fill="#F3F4F6" rx="20"/>
  <rect x="570" y="300" width="38" height="20" fill="#4B5563"/>
  <!-- Certificate -->
  <rect x="580" y="340" width="130" height="90" fill="#FFFFFF"/>
  <rect x="590" y="350" width="110" height="70" fill="#FBBF24" opacity="0.3"/>
  <circle cx="645" cy="365" r="8" fill="#F59E0B"/>
  <text x="645" y="370" text-anchor="middle" font-family="Arial" font-size="6" font-weight="bold" fill="white">⭐</text>
  <text x="645" y="385" text-anchor="middle" font-family="Arial" font-size="10" font-weight="bold" fill="#1F2937">ISO 14001</text>
  <text x="645" y="400" text-anchor="middle" font-family="Arial" font-size="8" fill="#1F2937">Environmental</text>
  <text x="645" y="415" text-anchor="middle" font-family="Arial" font-size="8" fill="#1F2937">Management</text>
  <text x="645" y="460" text-anchor="middle" font-family="Arial" font-size="12" font-weight="bold" fill="#1F2937">Certification</text>
  <text x="645" y="480" text-anchor="middle" font-family="Arial" font-size="10" fill="#1F2937">2024</text>
  
  <rect x="770" y="260" width="190" height="290" fill="#F3F4F6" rx="20"/>
  <rect x="780" y="240" width="42" height="20" fill="#4B5563"/>
  <!-- Plaque -->
  <rect x="790" y="280" width="150" height="100" fill="#92400E"/>
  <rect x="800" y="290" width="130" height="80" fill="#FBBF24"/>
  <text x="865" y="315" text-anchor="middle" font-family="Arial" font-size="12" font-weight="bold" fill="#92400E">SUPPLIER</text>
  <text x="865" y="335" text-anchor="middle" font-family="Arial" font-size="12" font-weight="bold" fill="#92400E">OF THE YEAR</text>
  <text x="865" y="355" text-anchor="middle" font-family="Arial" font-size="10" fill="#92400E">Global Excellence</text>
  <text x="865" y="410" text-anchor="middle" font-family="Arial" font-size="12" font-weight="bold" fill="#1F2937">Industry Leader</text>
  <text x="865" y="430" text-anchor="middle" font-family="Arial" font-size="10" fill="#1F2937">2023-2024</text>
  
  <rect x="1000" y="300" width="200" height="250" fill="#F3F4F6" rx="20"/>
  <rect x="1010" y="280" width="48" height="20" fill="#4B5563"/>
  <!-- Star award -->
  <polygon points="1100,320 1115,360 1155,360 1125,385 1135,425 1100,400 1065,425 1075,385 1045,360 1085,360" fill="#F59E0B"/>
  <polygon points="1100,335 1110,355 1130,355 1117,367 1122,387 1100,378 1078,387 1083,367 1070,355 1090,355" fill="#FBBF24"/>
  <text x="1100" y="460" text-anchor="middle" font-family="Arial" font-size="12" font-weight="bold" fill="#1F2937">Customer</text>
  <text x="1100" y="480" text-anchor="middle" font-family="Arial" font-size="12" font-weight="bold" fill="#1F2937">Choice Award</text>
  <text x="1100" y="500" text-anchor="middle" font-family="Arial" font-size="10" fill="#1F2937">2024</text>
  
  <rect x="1240" y="280" width="180" height="270" fill="#F3F4F6" rx="20"/>
  <rect x="1250" y="260" width="40" height="20" fill="#4B5563"/>
  <!-- Shield award -->
  <path d="M1330,320 L1370,300 L1370,340 L1350,360 L1310,360 L1290,340 L1290,300 Z" fill="#3B82F6"/>
  <path d="M1330,325 L1360,310 L1360,340 L1345,355 L1315,355 L1300,340 L1300,310 Z" fill="#60A5FA"/>
  <text x="1330" y="340" text-anchor="middle" font-family="Arial" font-size="10" font-weight="bold" fill="white">SAFE</text>
  <text x="1330" y="390" text-anchor="middle" font-family="Arial" font-size="12" font-weight="bold" fill="#1F2937">Safety</text>
  <text x="1330" y="410" text-anchor="middle" font-family="Arial" font-size="12" font-weight="bold" fill="#1F2937">Excellence</text>
  <text x="1330" y="430" text-anchor="middle" font-family="Arial" font-size="10" fill="#1F2937">Zero Incidents</text>
  <text x="1330" y="450" text-anchor="middle" font-family="Arial" font-size="10" fill="#1F2937">2024</text>
  
  <rect x="1460" y="320" width="170" height="230" fill="#F3F4F6" rx="20"/>
  <rect x="1470" y="300" width="38" height="20" fill="#4B5563"/>
  <!-- Ribbon award -->
  <rect x="1490" y="340" width="110" height="60" fill="#DC2626"/>
  <polygon points="1490,400 1520,420 1490,440" fill="#B91C1C"/>
  <polygon points="1600,400 1570,420 1600,440" fill="#B91C1C"/>
  <text x="1545" y="365" text-anchor="middle" font-family="Arial" font-size="10" font-weight="bold" fill="white">BEST</text>
  <text x="1545" y="380" text-anchor="middle" font-family="Arial" font-size="10" font-weight="bold" fill="white">PRACTICE</text>
  <text x="1545" y="470" text-anchor="middle" font-family="Arial" font-size="12" font-weight="bold" fill="#1F2937">Sustainability</text>
  <text x="1545" y="490" text-anchor="middle" font-family="Arial" font-size="10" fill="#1F2937">2024</text>
  
  <rect x="1670" y="300" width="160" height="250" fill="#F3F4F6" rx="20"/>
  <rect x="1680" y="280" width="35" height="20" fill="#4B5563"/>
  <!-- Globe award -->
  <circle cx="1750" cy="350" r="30" fill="#059669"/>
  <circle cx="1750" cy="350" r="20" fill="#10B981"/>
  <text x="1750" y="358" text-anchor="middle" font-family="Arial" font-size="14" font-weight="bold" fill="white">🌍</text>
  <rect x="1735" y="380" width="30" height="20" fill="#6B7280"/>
  <rect x="1720" y="400" width="60" height="10" fill="#6B7280"/>
  <text x="1750" y="430" text-anchor="middle" font-family="Arial" font-size="12" font-weight="bold" fill="#1F2937">Global</text>
  <text x="1750" y="450" text-anchor="middle" font-family="Arial" font-size="12" font-weight="bold" fill="#1F2937">Recognition</text>
  <text x="1750" y="470" text-anchor="middle" font-family="Arial" font-size="10" fill="#1F2937">2023-2024</text>
  
  <!-- Achievement statistics -->
  <rect x="300" y="150" width="100" height="70" fill="#F59E0B" rx="15"/>
  <text x="350" y="175" text-anchor="middle" font-family="Arial" font-size="20" font-weight="bold" fill="white">50+</text>
  <text x="350" y="195" text-anchor="middle" font-family="Arial" font-size="12" fill="white">Awards</text>
  <text x="350" y="210" text-anchor="middle" font-family="Arial" font-size="10" fill="white">Since 2020</text>
  
  <rect x="500" y="130" width="120" height="80" fill="#10B981" rx="15"/>
  <text x="560" y="160" text-anchor="middle" font-family="Arial" font-size="22" font-weight="bold" fill="white">98%</text>
  <text x="560" y="180" text-anchor="middle" font-family="Arial" font-size="12" fill="white">Customer</text>
  <text x="560" y="195" text-anchor="middle" font-family="Arial" font-size="12" fill="white">Satisfaction</text>
  
  <rect x="700" y="140" width="110" height="75" fill="#3B82F6" rx="15"/>
  <text x="755" y="170" text-anchor="middle" font-family="Arial" font-size="18" font-weight="bold" fill="white">ISO</text>
  <text x="755" y="190" text-anchor="middle" font-family="Arial" font-size="12" fill="white">Certified</text>
  <text x="755" y="205" text-anchor="middle" font-family="Arial" font-size="10" fill="white">Multiple Standards</text>
  
  <rect x="900" y="120" width="130" height="85" fill="#8B5CF6" rx="15"/>
  <text x="965" y="155" text-anchor="middle" font-family="Arial" font-size="20" font-weight="bold" fill="white">25</text>
  <text x="965" y="175" text-anchor="middle" font-family="Arial" font-size="12" fill="white">Years</text>
  <text x="965" y="190" text-anchor="middle" font-family="Arial" font-size="11" fill="white">Excellence</text>
  
  <rect x="1120" y="150" width="115" height="70" fill="#DC2626" rx="15"/>
  <text x="1177" y="180" text-anchor="middle" font-family="Arial" font-size="16" font-weight="bold" fill="white">Zero</text>
  <text x="1177" y="200" text-anchor="middle" font-family="Arial" font-size="12" fill="white">Defects</text>
  
  <rect x="1320" y="130" width="125" height="80" fill="#059669" rx="15"/>
  <text x="1382" y="165" text-anchor="middle" font-family="Arial" font-size="18" font-weight="bold" fill="white">100%</text>
  <text x="1382" y="185" text-anchor="middle" font-family="Arial" font-size="12" fill="white">Sustainable</text>
  
  <!-- Recognition timeline -->
  <line x1="200" y1="80" x2="1600" y2="80" stroke="#EA580C" stroke-width="5" opacity="0.8"/>
  <circle cx="350" cy="80" r="10" fill="#F59E0B"/>
  <circle cx="560" cy="80" r="10" fill="#10B981"/>
  <circle cx="755" cy="80" r="10" fill="#3B82F6"/>
  <circle cx="965" cy="80" r="10" fill="#8B5CF6"/>
  <circle cx="1177" cy="80" r="10" fill="#DC2626"/>
  <circle cx="1382" cy="80" r="10" fill="#059669"/>
  
  <!-- Achievement rays -->
  <path d="M350,60 L340,40 M350,60 L360,40 M350,60 L350,40" stroke="#F59E0B" stroke-width="3" opacity="0.6"/>
  <path d="M560,60 L550,40 M560,60 L570,40 M560,60 L560,40" stroke="#10B981" stroke-width="3" opacity="0.6"/>
  <path d="M755,60 L745,40 M755,60 L765,40 M755,60 L755,40" stroke="#3B82F6" stroke-width="3" opacity="0.6"/>
  <path d="M965,60 L955,40 M965,60 L975,40 M965,60 L965,40" stroke="#8B5CF6" stroke-width="3" opacity="0.6"/>
  <path d="M1177,60 L1167,40 M1177,60 L1187,40 M1177,60 L1177,40" stroke="#DC2626" stroke-width="3" opacity="0.6"/>
  <path d="M1382,60 L1372,40 M1382,60 L1392,40 M1382,60 L1382,40" stroke="#059669" stroke-width="3" opacity="0.6"/>
  
  <!-- Dark overlay -->
  <rect width="1920" height="800" fill="url(#overlayGradient12)"/>
</svg>