<svg width="1920" height="800" viewBox="0 0 1920 800" xmlns="http://www.w3.org/2000/svg">
  <defs>
    <linearGradient id="heroGradient3" x1="0%" y1="0%" x2="100%" y2="100%">
      <stop offset="0%" style="stop-color:#7C2D12"/>
      <stop offset="100%" style="stop-color:#DC2626"/>
    </linearGradient>
    <linearGradient id="overlayGradient3" x1="0%" y1="0%" x2="100%" y2="0%">
      <stop offset="0%" style="stop-color:rgba(0,0,0,0.4)"/>
      <stop offset="100%" style="stop-color:rgba(0,0,0,0.6)"/>
    </linearGradient>
  </defs>
  <rect width="1920" height="800" fill="url(#heroGradient3)"/>
  
  <!-- Quality control and laboratory setting -->
  <rect x="0" y="650" width="1920" height="150" fill="#1F2937"/>
  
  <!-- Laboratory workbenches -->
  <rect x="150" y="500" width="400" height="150" fill="#F3F4F6" rx="10"/>
  <rect x="650" y="480" width="450" height="170" fill="#F3F4F6" rx="10"/>
  <rect x="1200" y="460" width="400" height="190" fill="#F3F4F6" rx="10"/>
  
  <!-- Equipment on benches -->
  <rect x="200" y="450" width="80" height="50" fill="#6B7280" rx="5"/>
  <rect x="320" y="450" width="60" height="50" fill="#6B7280" rx="5"/>
  <rect x="420" y="450" width="70" height="50" fill="#6B7280" rx="5"/>
  <rect x="700" y="430" width="90" height="50" fill="#6B7280" rx="5"/>
  <rect x="820" y="430" width="70" height="50" fill="#6B7280" rx="5"/>
  <rect x="920" y="430" width="80" height="50" fill="#6B7280" rx="5"/>
  <rect x="1250" y="410" width="100" height="50" fill="#6B7280" rx="5"/>
  <rect x="1380" y="410" width="80" height="50" fill="#6B7280" rx="5"/>
  <rect x="1490" y="410" width="90" height="50" fill="#6B7280" rx="5"/>
  
  <!-- Microscopes and precision instruments -->
  <circle cx="240" cy="425" r="15" fill="#374151"/>
  <rect x="235" y="400" width="10" height="25" fill="#374151"/>
  <circle cx="360" cy="425" r="15" fill="#374151"/>
  <rect x="355" y="400" width="10" height="25" fill="#374151"/>
  <circle cx="455" cy="425" r="15" fill="#374151"/>
  <rect x="450" y="400" width="10" height="25" fill="#374151"/>
  
  <!-- Test samples -->
  <circle cx="180" cy="530" r="5" fill="#10B981"/>
  <circle cx="200" cy="530" r="5" fill="#EF4444"/>
  <circle cx="220" cy="530" r="5" fill="#F59E0B"/>
  <circle cx="240" cy="530" r="5" fill="#10B981"/>
  <circle cx="260" cy="530" r="5" fill="#10B981"/>
  
  <circle cx="680" cy="510" r="5" fill="#10B981"/>
  <circle cx="700" cy="510" r="5" fill="#10B981"/>
  <circle cx="720" cy="510" r="5" fill="#EF4444"/>
  <circle cx="740" cy="510" r="5" fill="#10B981"/>
  <circle cx="760" cy="510" r="5" fill="#F59E0B"/>
  
  <!-- Digital displays -->
  <rect x="300" y="380" width="60" height="30" fill="#1F2937"/>
  <rect x="450" y="380" width="60" height="30" fill="#1F2937"/>
  <rect x="750" y="360" width="80" height="40" fill="#1F2937"/>
  <rect x="870" y="360" width="80" height="40" fill="#1F2937"/>
  <rect x="1300" y="340" width="100" height="50" fill="#1F2937"/>
  <rect x="1440" y="340" width="100" height="50" fill="#1F2937"/>
  
  <!-- LED indicators on displays -->
  <circle cx="320" cy="395" r="3" fill="#10B981"/>
  <circle cx="340" cy="395" r="3" fill="#10B981"/>
  <circle cx="470" cy="395" r="3" fill="#EF4444"/>
  <circle cx="490" cy="395" r="3" fill="#F59E0B"/>
  <circle cx="780" cy="380" r="4" fill="#10B981"/>
  <circle cx="800" cy="380" r="4" fill="#10B981"/>
  <circle cx="820" cy="380" r="4" fill="#10B981"/>
  
  <!-- Quality certification symbols -->
  <circle cx="960" cy="200" r="40" fill="#F59E0B"/>
  <text x="960" y="208" text-anchor="middle" font-family="Arial" font-size="24" font-weight="bold" fill="white">ISO</text>
  <circle cx="1100" cy="180" r="35" fill="#10B981"/>
  <text x="1100" y="188" text-anchor="middle" font-family="Arial" font-size="20" font-weight="bold" fill="white">CE</text>
  
  <!-- Dark overlay -->
  <rect width="1920" height="800" fill="url(#overlayGradient3)"/>
</svg>