<svg width="1920" height="800" viewBox="0 0 1920 800" xmlns="http://www.w3.org/2000/svg">
  <defs>
    <linearGradient id="heroGradient7" x1="0%" y1="0%" x2="100%" y2="100%">
      <stop offset="0%" style="stop-color:#1E1B4B"/>
      <stop offset="100%" style="stop-color:#6366F1"/>
    </linearGradient>
    <linearGradient id="overlayGradient7" x1="0%" y1="0%" x2="100%" y2="0%">
      <stop offset="0%" style="stop-color:rgba(0,0,0,0.3)"/>
      <stop offset="100%" style="stop-color:rgba(0,0,0,0.5)"/>
    </linearGradient>
  </defs>
  <rect width="1920" height="800" fill="url(#heroGradient7)"/>
  
  <!-- Research and development laboratory -->
  <rect x="0" y="650" width="1920" height="150" fill="#1F2937"/>
  
  <!-- Laboratory equipment and computers -->
  <rect x="150" y="350" width="200" height="250" fill="#F3F4F6" rx="15"/>
  <rect x="170" y="370" width="160" height="120" fill="#1F2937" rx="8"/>
  <rect x="175" y="375" width="150" height="110" fill="#4338CA" opacity="0.8"/>
  
  <rect x="400" y="320" width="180" height="280" fill="#F3F4F6" rx="15"/>
  <rect x="420" y="340" width="140" height="140" fill="#1F2937" rx="8"/>
  <rect x="425" y="345" width="130" height="130" fill="#059669" opacity="0.8"/>
  
  <rect x="630" y="380" width="220" height="220" fill="#F3F4F6" rx="15"/>
  <rect x="650" y="400" width="180" height="100" fill="#1F2937" rx="8"/>
  <rect x="655" y="405" width="170" height="90" fill="#DC2626" opacity="0.8"/>
  
  <rect x="900" y="340" width="190" height="260" fill="#F3F4F6" rx="15"/>
  <rect x="920" y="360" width="150" height="120" fill="#1F2937" rx="8"/>
  <rect x="925" y="365" width="140" height="110" fill="#F59E0B" opacity="0.8"/>
  
  <rect x="1140" y="300" width="210" height="300" fill="#F3F4F6" rx="15"/>
  <rect x="1160" y="320" width="170" height="160" fill="#1F2937" rx="8"/>
  <rect x="1165" y="325" width="160" height="150" fill="#7C3AED" opacity="0.8"/>
  
  <rect x="1400" y="360" width="180" height="240" fill="#F3F4F6" rx="15"/>
  <rect x="1420" y="380" width="140" height="100" fill="#1F2937" rx="8"/>
  <rect x="1425" y="385" width="130" height="90" fill="#10B981" opacity="0.8"/>
  
  <rect x="1630" y="340" width="200" height="260" fill="#F3F4F6" rx="15"/>
  <rect x="1650" y="360" width="160" height="120" fill="#1F2937" rx="8"/>
  <rect x="1655" y="365" width="150" height="110" fill="#EF4444" opacity="0.8"/>
  
  <!-- Computer screens and data visualization -->
  <rect x="200" y="250" width="120" height="80" fill="#1F2937" rx="5"/>
  <rect x="210" y="260" width="100" height="60" fill="#3B82F6" opacity="0.9"/>
  <!-- Data charts -->
  <rect x="220" y="290" width="15" height="20" fill="#10B981"/>
  <rect x="240" y="285" width="15" height="25" fill="#F59E0B"/>
  <rect x="260" y="275" width="15" height="35" fill="#EF4444"/>
  <rect x="280" y="280" width="15" height="30" fill="#8B5CF6"/>
  
  <rect x="450" y="200" width="140" height="100" fill="#1F2937" rx="5"/>
  <rect x="460" y="210" width="120" height="80" fill="#059669" opacity="0.9"/>
  <!-- Molecular structures -->
  <circle cx="480" cy="230" r="5" fill="#FFFFFF"/>
  <circle cx="500" cy="240" r="5" fill="#FFFFFF"/>
  <circle cx="520" cy="250" r="5" fill="#FFFFFF"/>
  <circle cx="540" cy="230" r="5" fill="#FFFFFF"/>
  <circle cx="560" cy="240" r="5" fill="#FFFFFF"/>
  <line x1="480" y1="230" x2="500" y2="240" stroke="#FFFFFF" stroke-width="2"/>
  <line x1="500" y1="240" x2="520" y2="250" stroke="#FFFFFF" stroke-width="2"/>
  <line x1="520" y1="250" x2="540" y2="230" stroke="#FFFFFF" stroke-width="2"/>
  <line x1="540" y1="230" x2="560" y2="240" stroke="#FFFFFF" stroke-width="2"/>
  
  <rect x="1200" y="180" width="160" height="90" fill="#1F2937" rx="5"/>
  <rect x="1210" y="190" width="140" height="70" fill="#7C3AED" opacity="0.9"/>
  <!-- 3D models -->
  <polygon points="1230,210 1250,200 1270,210 1250,230" fill="#FFFFFF"/>
  <polygon points="1280,215 1300,205 1320,215 1300,235" fill="#FFFFFF"/>
  <polygon points="1330,220 1350,210 1340,230 1320,240" fill="#FFFFFF"/>
  
  <!-- Research equipment -->
  <circle cx="300" cy="450" r="30" fill="#6B7280"/>
  <rect x="295" y="420" width="10" height="30" fill="#6B7280"/>
  <circle cx="300" cy="410" r="8" fill="#374151"/>
  
  <circle cx="700" cy="480" r="35" fill="#6B7280"/>
  <rect x="694" y="445" width="12" height="35" fill="#6B7280"/>
  <circle cx="700" cy="435" r="10" fill="#374151"/>
  
  <circle cx="1100" cy="460" r="32" fill="#6B7280"/>
  <rect x="1095" y="428" width="10" height="32" fill="#6B7280"/>
  <circle cx="1100" cy="420" r="9" fill="#374151"/>
  
  <!-- Innovation indicators -->
  <polygon points="960,150 980,120 1000,150 980,180" fill="#F59E0B"/>
  <text x="980" y="155" text-anchor="middle" font-family="Arial" font-size="16" font-weight="bold" fill="white">R&D</text>
  
  <circle cx="1500" cy="200" r="25" fill="#10B981"/>
  <polygon points="1485,190 1495,200 1485,210 1495,200 1505,190 1515,200 1505,210" fill="white"/>
  
  <!-- Dark overlay -->
  <rect width="1920" height="800" fill="url(#overlayGradient7)"/>
</svg>