<svg width="1920" height="800" viewBox="0 0 1920 800" xmlns="http://www.w3.org/2000/svg">
  <defs>
    <linearGradient id="heroGradient11" x1="0%" y1="0%" x2="100%" y2="100%">
      <stop offset="0%" style="stop-color:#166534"/>
      <stop offset="100%" style="stop-color:#22C55E"/>
    </linearGradient>
    <linearGradient id="overlayGradient11" x1="0%" y1="0%" x2="100%" y2="0%">
      <stop offset="0%" style="stop-color:rgba(0,0,0,0.4)"/>
      <stop offset="100%" style="stop-color:rgba(0,0,0,0.2)"/>
    </linearGradient>
  </defs>
  <rect width="1920" height="800" fill="url(#heroGradient11)"/>
  
  <!-- Training and education center -->
  <rect x="0" y="650" width="1920" height="150" fill="#1F2937"/>
  
  <!-- Training facility and classrooms -->
  <rect x="150" y="300" width="250" height="300" fill="#F3F4F6" rx="20"/>
  <rect x="170" y="280" width="50" height="20" fill="#4B5563"/>
  <rect x="170" y="320" width="210" height="150" fill="#1F2937" rx="10"/>
  <rect x="180" y="330" width="190" height="130" fill="#22C55E" opacity="0.8"/>
  <!-- Presentation screen -->
  <rect x="200" y="350" width="150" height="90" fill="#FFFFFF"/>
  <rect x="210" y="360" width="40" height="30" fill="#3B82F6"/>
  <rect x="260" y="360" width="40" height="30" fill="#EF4444"/>
  <rect x="310" y="360" width="30" height="30" fill="#F59E0B"/>
  <rect x="220" y="400" width="100" height="20" fill="#10B981"/>
  
  <!-- Student desks -->
  <rect x="180" y="490" width="30" height="20" fill="#6B7280"/>
  <rect x="220" y="490" width="30" height="20" fill="#6B7280"/>
  <rect x="260" y="490" width="30" height="20" fill="#6B7280"/>
  <rect x="300" y="490" width="30" height="20" fill="#6B7280"/>
  <rect x="340" y="490" width="30" height="20" fill="#6B7280"/>
  <rect x="180" y="530" width="30" height="20" fill="#6B7280"/>
  <rect x="220" y="530" width="30" height="20" fill="#6B7280"/>
  <rect x="260" y="530" width="30" height="20" fill="#6B7280"/>
  <rect x="300" y="530" width="30" height="20" fill="#6B7280"/>
  <rect x="340" y="530" width="30" height="20" fill="#6B7280"/>
  <rect x="180" y="570" width="30" height="20" fill="#6B7280"/>
  <rect x="220" y="570" width="30" height="20" fill="#6B7280"/>
  <rect x="260" y="570" width="30" height="20" fill="#6B7280"/>
  <rect x="300" y="570" width="30" height="20" fill="#6B7280"/>
  <rect x="340" y="570" width="30" height="20" fill="#6B7280"/>
  
  <rect x="450" y="250" width="280" height="350" fill="#F3F4F6" rx="20"/>
  <rect x="470" y="230" width="60" height="20" fill="#4B5563"/>
  <rect x="470" y="270" width="240" height="180" fill="#1F2937" rx="10"/>
  <rect x="480" y="280" width="220" height="160" fill="#3B82F6" opacity="0.8"/>
  <!-- Computer lab -->
  <rect x="500" y="300" width="25" height="20" fill="#FFFFFF"/>
  <rect x="535" y="300" width="25" height="20" fill="#FFFFFF"/>
  <rect x="570" y="300" width="25" height="20" fill="#FFFFFF"/>
  <rect x="605" y="300" width="25" height="20" fill="#FFFFFF"/>
  <rect x="640" y="300" width="25" height="20" fill="#FFFFFF"/>
  <rect x="675" y="300" width="25" height="20" fill="#FFFFFF"/>
  <rect x="500" y="340" width="25" height="20" fill="#FFFFFF"/>
  <rect x="535" y="340" width="25" height="20" fill="#FFFFFF"/>
  <rect x="570" y="340" width="25" height="20" fill="#FFFFFF"/>
  <rect x="605" y="340" width="25" height="20" fill="#FFFFFF"/>
  <rect x="640" y="340" width="25" height="20" fill="#FFFFFF"/>
  <rect x="675" y="340" width="25" height="20" fill="#FFFFFF"/>
  <rect x="500" y="380" width="25" height="20" fill="#FFFFFF"/>
  <rect x="535" y="380" width="25" height="20" fill="#FFFFFF"/>
  <rect x="570" y="380" width="25" height="20" fill="#FFFFFF"/>
  <rect x="605" y="380" width="25" height="20" fill="#FFFFFF"/>
  <rect x="640" y="380" width="25" height="20" fill="#FFFFFF"/>
  <rect x="675" y="380" width="25" height="20" fill="#FFFFFF"/>
  <rect x="500" y="420" width="25" height="20" fill="#FFFFFF"/>
  <rect x="535" y="420" width="25" height="20" fill="#FFFFFF"/>
  <rect x="570" y="420" width="25" height="20" fill="#FFFFFF"/>
  <rect x="605" y="420" width="25" height="20" fill="#FFFFFF"/>
  <rect x="640" y="420" width="25" height="20" fill="#FFFFFF"/>
  <rect x="675" y="420" width="25" height="20" fill="#FFFFFF"/>
  
  <rect x="780" y="280" width="260" height="320" fill="#F3F4F6" rx="20"/>
  <rect x="800" y="260" width="55" height="20" fill="#4B5563"/>
  <rect x="800" y="300" width="220" height="160" fill="#1F2937" rx="10"/>
  <rect x="810" y="310" width="200" height="140" fill="#F59E0B" opacity="0.8"/>
  <!-- Workshop/lab equipment -->
  <rect x="830" y="330" width="40" height="50" fill="#6B7280"/>
  <rect x="890" y="320" width="50" height="60" fill="#6B7280"/>
  <rect x="960" y="335" width="35" height="45" fill="#6B7280"/>
  <rect x="830" y="400" width="45" height="40" fill="#6B7280"/>
  <rect x="895" y="395" width="40" height="45" fill="#6B7280"/>
  <rect x="955" y="405" width="50" height="35" fill="#6B7280"/>
  
  <rect x="1090" y="260" width="270" height="340" fill="#F3F4F6" rx="20"/>
  <rect x="1110" y="240" width="58" height="20" fill="#4B5563"/>
  <rect x="1110" y="280" width="230" height="170" fill="#1F2937" rx="10"/>
  <rect x="1120" y="290" width="210" height="150" fill="#8B5CF6" opacity="0.8"/>
  <!-- VR/AR training setup -->
  <circle cx="1180" cy="350" r="20" fill="#FFFFFF"/>
  <rect x="1175" y="330" width="10" height="20" fill="#FFFFFF"/>
  <circle cx="1240" cy="360" r="18" fill="#FFFFFF"/>
  <rect x="1236" y="342" width="8" height="18" fill="#FFFFFF"/>
  <circle cx="1300" cy="340" r="22" fill="#FFFFFF"/>
  <rect x="1294" y="318" width="12" height="22" fill="#FFFFFF"/>
  <!-- VR equipment -->
  <rect x="1160" y="390" width="60" height="30" fill="#374151" rx="15"/>
  <rect x="1240" y="395" width="50" height="25" fill="#374151" rx="12"/>
  <rect x="1310" y="385" width="40" height="35" fill="#374151" rx="20"/>
  
  <rect x="1410" y="300" width="240" height="300" fill="#F3F4F6" rx="20"/>
  <rect x="1430" y="280" width="52" height="20" fill="#4B5563"/>
  <rect x="1430" y="320" width="200" height="140" fill="#1F2937" rx="10"/>
  <rect x="1440" y="330" width="180" height="120" fill="#DC2626" opacity="0.8"/>
  <!-- Safety training area -->
  <rect x="1460" y="350" width="30" height="40" fill="#F59E0B"/>
  <text x="1475" y="375" text-anchor="middle" font-family="Arial" font-size="16" font-weight="bold" fill="white">⚠</text>
  <rect x="1510" y="360" width="35" height="30" fill="#EF4444"/>
  <text x="1527" y="378" text-anchor="middle" font-family="Arial" font-size="14" font-weight="bold" fill="white">🔥</text>
  <rect x="1570" y="355" width="32" height="35" fill="#10B981"/>
  <text x="1586" y="376" text-anchor="middle" font-family="Arial" font-size="15" font-weight="bold" fill="white">✓</text>
  
  <rect x="1700" y="320" width="180" height="280" fill="#F3F4F6" rx="20"/>
  <rect x="1720" y="300" width="45" height="20" fill="#4B5563"/>
  <rect x="1720" y="340" width="140" height="120" fill="#1F2937" rx="10"/>
  <rect x="1730" y="350" width="120" height="100" fill="#06B6D4" opacity="0.8"/>
  <!-- Online learning platform -->
  <rect x="1750" y="370" width="80" height="60" fill="#FFFFFF"/>
  <rect x="1760" y="380" width="25" height="15" fill="#3B82F6"/>
  <rect x="1795" y="380" width="25" height="15" fill="#10B981"/>
  <rect x="1760" y="405" width="60" height="8" fill="#F59E0B"/>
  <rect x="1760" y="418" width="45" height="6" fill="#EF4444"/>
  
  <!-- Training certifications and achievements -->
  <rect x="500" y="150" width="80" height="60" fill="#22C55E" rx="10"/>
  <text x="540" y="175" text-anchor="middle" font-family="Arial" font-size="14" font-weight="bold" fill="white">CERT</text>
  <text x="540" y="195" text-anchor="middle" font-family="Arial" font-size="10" fill="white">ISO 9001</text>
  
  <rect x="650" y="140" width="90" height="70" fill="#3B82F6" rx="10"/>
  <text x="695" y="170" text-anchor="middle" font-family="Arial" font-size="16" font-weight="bold" fill="white">95%</text>
  <text x="695" y="190" text-anchor="middle" font-family="Arial" font-size="11" fill="white">Pass Rate</text>
  
  <rect x="800" y="160" width="85" height="65" fill="#F59E0B" rx="10"/>
  <text x="842" y="188" text-anchor="middle" font-family="Arial" font-size="15" font-weight="bold" fill="white">500+</text>
  <text x="842" y="205" text-anchor="middle" font-family="Arial" font-size="10" fill="white">Trained</text>
  
  <rect x="950" y="150" width="100" height="60" fill="#8B5CF6" rx="10"/>
  <text x="1000" y="175" text-anchor="middle" font-family="Arial" font-size="14" font-weight="bold" fill="white">24/7</text>
  <text x="1000" y="195" text-anchor="middle" font-family="Arial" font-size="10" fill="white">Learning</text>
  
  <rect x="1120" y="140" width="95" height="70" fill="#DC2626" rx="10"/>
  <text x="1167" y="170" text-anchor="middle" font-family="Arial" font-size="16" font-weight="bold" fill="white">VR</text>
  <text x="1167" y="190" text-anchor="middle" font-family="Arial" font-size="11" fill="white">Training</text>
  
  <!-- Knowledge transfer arrows -->
  <path d="M400,200 Q500,150 600,200" stroke="#22C55E" stroke-width="5" fill="none" opacity="0.8"/>
  <path d="M740,200 Q840,150 940,200" stroke="#22C55E" stroke-width="5" fill="none" opacity="0.8"/>
  <path d="M1050,200 Q1150,150 1250,200" stroke="#22C55E" stroke-width="5" fill="none" opacity="0.8"/>
  
  <!-- Knowledge nodes -->
  <circle cx="500" cy="175" r="8" fill="#22C55E"/>
  <circle cx="840" cy="175" r="8" fill="#22C55E"/>
  <circle cx="1150" cy="175" r="8" fill="#22C55E"/>
  
  <!-- Dark overlay -->
  <rect width="1920" height="800" fill="url(#overlayGradient11)"/>
</svg>