<svg width="1920" height="800" viewBox="0 0 1920 800" xmlns="http://www.w3.org/2000/svg">
  <defs>
    <linearGradient id="heroGradient10" x1="0%" y1="0%" x2="100%" y2="100%">
      <stop offset="0%" style="stop-color:#0C4A6E"/>
      <stop offset="100%" style="stop-color:#0EA5E9"/>
    </linearGradient>
    <linearGradient id="overlayGradient10" x1="0%" y1="0%" x2="100%" y2="0%">
      <stop offset="0%" style="stop-color:rgba(0,0,0,0.3)"/>
      <stop offset="100%" style="stop-color:rgba(0,0,0,0.5)"/>
    </linearGradient>
  </defs>
  <rect width="1920" height="800" fill="url(#heroGradient10)"/>
  
  <!-- Future technology and innovation -->
  <rect x="0" y="650" width="1920" height="150" fill="#1F2937"/>
  
  <!-- Futuristic technology elements -->
  <!-- Holographic displays -->
  <rect x="150" y="300" width="200" height="150" fill="rgba(59, 130, 246, 0.3)" rx="15" stroke="#3B82F6" stroke-width="2"/>
  <rect x="170" y="320" width="160" height="110" fill="rgba(59, 130, 246, 0.5)" rx="10"/>
  <!-- Hologram content -->
  <circle cx="220" cy="355" r="15" fill="#10B981" opacity="0.8"/>
  <circle cx="250" cy="370" r="12" fill="#F59E0B" opacity="0.8"/>
  <circle cx="280" cy="385" r="18" fill="#EF4444" opacity="0.8"/>
  <circle cx="310" cy="360" r="14" fill="#8B5CF6" opacity="0.8"/>
  <line x1="220" y1="355" x2="250" y2="370" stroke="#FFFFFF" stroke-width="2" opacity="0.6"/>
  <line x1="250" y1="370" x2="280" y2="385" stroke="#FFFFFF" stroke-width="2" opacity="0.6"/>
  <line x1="280" y1="385" x2="310" y2="360" stroke="#FFFFFF" stroke-width="2" opacity="0.6"/>
  
  <rect x="400" y="250" width="250" height="200" fill="rgba(16, 185, 129, 0.3)" rx="15" stroke="#10B981" stroke-width="2"/>
  <rect x="420" y="270" width="210" height="160" fill="rgba(16, 185, 129, 0.5)" rx="10"/>
  <!-- AI neural network visualization -->
  <circle cx="460" cy="320" r="8" fill="#FFFFFF"/>
  <circle cx="490" cy="310" r="8" fill="#FFFFFF"/>
  <circle cx="520" cy="330" r="8" fill="#FFFFFF"/>
  <circle cx="550" cy="315" r="8" fill="#FFFFFF"/>
  <circle cx="580" cy="340" r="8" fill="#FFFFFF"/>
  <circle cx="610" cy="325" r="8" fill="#FFFFFF"/>
  <circle cx="480" cy="370" r="8" fill="#FFFFFF"/>
  <circle cx="520" cy="380" r="8" fill="#FFFFFF"/>
  <circle cx="560" cy="375" r="8" fill="#FFFFFF"/>
  <circle cx="600" cy="385" r="8" fill="#FFFFFF"/>
  <!-- Neural connections -->
  <line x1="460" y1="320" x2="490" y2="310" stroke="#FFFFFF" stroke-width="1" opacity="0.7"/>
  <line x1="490" y1="310" x2="520" y2="330" stroke="#FFFFFF" stroke-width="1" opacity="0.7"/>
  <line x1="520" y1="330" x2="550" y2="315" stroke="#FFFFFF" stroke-width="1" opacity="0.7"/>
  <line x1="550" y1="315" x2="580" y2="340" stroke="#FFFFFF" stroke-width="1" opacity="0.7"/>
  <line x1="580" y1="340" x2="610" y2="325" stroke="#FFFFFF" stroke-width="1" opacity="0.7"/>
  <line x1="460" y1="320" x2="480" y2="370" stroke="#FFFFFF" stroke-width="1" opacity="0.7"/>
  <line x1="520" y1="330" x2="520" y2="380" stroke="#FFFFFF" stroke-width="1" opacity="0.7"/>
  <line x1="580" y1="340" x2="560" y2="375" stroke="#FFFFFF" stroke-width="1" opacity="0.7"/>
  <line x1="610" y1="325" x2="600" y2="385" stroke="#FFFFFF" stroke-width="1" opacity="0.7"/>
  
  <rect x="700" y="280" width="220" height="180" fill="rgba(245, 158, 11, 0.3)" rx="15" stroke="#F59E0B" stroke-width="2"/>
  <rect x="720" y="300" width="180" height="140" fill="rgba(245, 158, 11, 0.5)" rx="10"/>
  <!-- IoT device network -->
  <rect x="740" y="320" width="25" height="25" fill="#FFFFFF" rx="5"/>
  <rect x="780" y="310" width="30" height="30" fill="#FFFFFF" rx="6"/>
  <rect x="830" y="325" width="20" height="20" fill="#FFFFFF" rx="4"/>
  <rect x="870" y="315" width="28" height="28" fill="#FFFFFF" rx="5"/>
  <rect x="750" y="380" width="35" height="35" fill="#FFFFFF" rx="7"/>
  <rect x="810" y="370" width="25" height="25" fill="#FFFFFF" rx="5"/>
  <rect x="860" y="385" width="30" height="30" fill="#FFFFFF" rx="6"/>
  
  <rect x="970" y="220" width="280" height="240" fill="rgba(139, 92, 246, 0.3)" rx="15" stroke="#8B5CF6" stroke-width="2"/>
  <rect x="990" y="240" width="240" height="200" fill="rgba(139, 92, 246, 0.5)" rx="10"/>
  <!-- Quantum computing visualization -->
  <circle cx="1050" cy="300" r="25" fill="rgba(255, 255, 255, 0.8)"/>
  <circle cx="1110" cy="280" r="30" fill="rgba(255, 255, 255, 0.8)"/>
  <circle cx="1170" cy="320" r="28" fill="rgba(255, 255, 255, 0.8)"/>
  <circle cx="1050" cy="380" r="32" fill="rgba(255, 255, 255, 0.8)"/>
  <circle cx="1130" cy="370" r="26" fill="rgba(255, 255, 255, 0.8)"/>
  <circle cx="1190" cy="390" r="29" fill="rgba(255, 255, 255, 0.8)"/>
  <!-- Quantum entanglement lines -->
  <path d="M1050,300 Q1080,260 1110,280" stroke="#FFFFFF" stroke-width="3" fill="none" opacity="0.8"/>
  <path d="M1110,280 Q1140,300 1170,320" stroke="#FFFFFF" stroke-width="3" fill="none" opacity="0.8"/>
  <path d="M1050,300 Q1050,340 1050,380" stroke="#FFFFFF" stroke-width="3" fill="none" opacity="0.8"/>
  <path d="M1170,320 Q1180,355 1190,390" stroke="#FFFFFF" stroke-width="3" fill="none" opacity="0.8"/>
  <path d="M1050,380 Q1090,375 1130,370" stroke="#FFFFFF" stroke-width="3" fill="none" opacity="0.8"/>
  <path d="M1130,370 Q1160,380 1190,390" stroke="#FFFFFF" stroke-width="3" fill="none" opacity="0.8"/>
  
  <rect x="1300" y="260" width="240" height="200" fill="rgba(239, 68, 68, 0.3)" rx="15" stroke="#EF4444" stroke-width="2"/>
  <rect x="1320" y="280" width="200" height="160" fill="rgba(239, 68, 68, 0.5)" rx="10"/>
  <!-- Robotics and automation -->
  <rect x="1340" y="320" width="15" height="80" fill="#FFFFFF" rx="7"/>
  <rect x="1330" y="350" width="35" height="12" fill="#FFFFFF" rx="6"/>
  <circle cx="1347" cy="310" r="12" fill="#FFFFFF"/>
  <rect x="1380" y="310" width="18" height="90" fill="#FFFFFF" rx="9"/>
  <rect x="1368" y="340" width="42" height="15" fill="#FFFFFF" rx="7"/>
  <circle cx="1389" cy="300" r="14" fill="#FFFFFF"/>
  <rect x="1430" y="305" width="20" height="95" fill="#FFFFFF" rx="10"/>
  <rect x="1415" y="335" width="50" height="18" fill="#FFFFFF" rx="9"/>
  <circle cx="1440" cy="295" r="15" fill="#FFFFFF"/>
  <rect x="1480" y="315" width="16" height="85" fill="#FFFFFF" rx="8"/>
  <rect x="1470" y="345" width="36" height="14" fill="#FFFFFF" rx="7"/>
  <circle cx="1488" cy="305" r="13" fill="#FFFFFF"/>
  
  <rect x="1590" y="300" width="200" height="160" fill="rgba(6, 182, 212, 0.3)" rx="15" stroke="#06B6D4" stroke-width="2"/>
  <rect x="1610" y="320" width="160" height="120" fill="rgba(6, 182, 212, 0.5)" rx="10"/>
  <!-- Digital twins and simulation -->
  <rect x="1630" y="340" width="40" height="30" fill="#FFFFFF" rx="5"/>
  <rect x="1680" y="350" width="35" height="25" fill="#FFFFFF" rx="4"/>
  <rect x="1720" y="345" width="38" height="28" fill="#FFFFFF" rx="5"/>
  <rect x="1635" y="385" width="45" height="35" fill="#FFFFFF" rx="6"/>
  <rect x="1690" y="390" width="40" height="30" fill="#FFFFFF" rx="5"/>
  <rect x="1740" y="385" width="42" height="32" fill="#FFFFFF" rx="5"/>
  <!-- Mirror effect lines -->
  <line x1="1650" y1="355" x2="1695" y2="362" stroke="#FFFFFF" stroke-width="1" stroke-dasharray="3,3" opacity="0.7"/>
  <line x1="1695" y1="362" x2="1739" y2="359" stroke="#FFFFFF" stroke-width="1" stroke-dasharray="3,3" opacity="0.7"/>
  <line x1="1657" y1="402" x2="1710" y2="405" stroke="#FFFFFF" stroke-width="1" stroke-dasharray="3,3" opacity="0.7"/>
  <line x1="1710" y1="405" x2="1761" y2="401" stroke="#FFFFFF" stroke-width="1" stroke-dasharray="3,3" opacity="0.7"/>
  
  <!-- Future tech indicators -->
  <circle cx="400" cy="150" r="30" fill="#0EA5E9"/>
  <text x="400" y="158" text-anchor="middle" font-family="Arial" font-size="16" font-weight="bold" fill="white">AI</text>
  
  <circle cx="700" cy="130" r="32" fill="#10B981"/>
  <text x="700" y="138" text-anchor="middle" font-family="Arial" font-size="15" font-weight="bold" fill="white">IoT</text>
  
  <circle cx="1000" cy="140" r="35" fill="#8B5CF6"/>
  <text x="1000" y="148" text-anchor="middle" font-family="Arial" font-size="14" font-weight="bold" fill="white">5G</text>
  
  <circle cx="1300" cy="160" r="33" fill="#F59E0B"/>
  <text x="1300" y="168" text-anchor="middle" font-family="Arial" font-size="15" font-weight="bold" fill="white">AR</text>
  
  <circle cx="1600" cy="180" r="31" fill="#EF4444"/>
  <text x="1600" y="188" text-anchor="middle" font-family="Arial" font-size="15" font-weight="bold" fill="white">VR</text>
  
  <!-- Innovation timeline -->
  <line x1="100" y1="100" x2="1800" y2="100" stroke="#0EA5E9" stroke-width="4" opacity="0.8"/>
  <circle cx="400" cy="100" r="8" fill="#0EA5E9"/>
  <circle cx="700" cy="100" r="8" fill="#10B981"/>
  <circle cx="1000" cy="100" r="8" fill="#8B5CF6"/>
  <circle cx="1300" cy="100" r="8" fill="#F59E0B"/>
  <circle cx="1600" cy="100" r="8" fill="#EF4444"/>
  
  <!-- Dark overlay -->
  <rect width="1920" height="800" fill="url(#overlayGradient10)"/>
</svg>