<svg width="1920" height="800" viewBox="0 0 1920 800" xmlns="http://www.w3.org/2000/svg">
  <defs>
    <linearGradient id="heroGradient6" x1="0%" y1="0%" x2="100%" y2="100%">
      <stop offset="0%" style="stop-color:#B91C1C"/>
      <stop offset="100%" style="stop-color:#F97316"/>
    </linearGradient>
    <linearGradient id="overlayGradient6" x1="0%" y1="0%" x2="100%" y2="0%">
      <stop offset="0%" style="stop-color:rgba(0,0,0,0.4)"/>
      <stop offset="100%" style="stop-color:rgba(0,0,0,0.6)"/>
    </linearGradient>
  </defs>
  <rect width="1920" height="800" fill="url(#heroGradient6)"/>
  
  <!-- Global supply chain and logistics -->
  <rect x="0" y="650" width="1920" height="150" fill="#1F2937"/>
  
  <!-- Shipping containers -->
  <rect x="100" y="450" width="180" height="120" fill="#DC2626" rx="5"/>
  <rect x="300" y="430" width="200" height="140" fill="#2563EB" rx="5"/>
  <rect x="520" y="470" width="170" height="100" fill="#059669" rx="5"/>
  <rect x="720" y="440" width="190" height="130" fill="#7C2D12" rx="5"/>
  <rect x="940" y="460" width="180" height="110" fill="#581C87" rx="5"/>
  <rect x="1150" y="420" width="200" height="150" fill="#DC2626" rx="5"/>
  <rect x="1380" y="450" width="170" height="120" fill="#2563EB" rx="5"/>
  <rect x="1580" y="440" width="190" height="130" fill="#059669" rx="5"/>
  
  <!-- Container doors and markings -->
  <rect x="270" y="460" width="10" height="100" fill="#7F1D1D"/>
  <rect x="490" y="440" width="10" height="120" fill="#1E3A8A"/>
  <rect x="680" y="480" width="10" height="80" fill="#064E3B"/>
  <rect x="900" y="450" width="10" height="110" fill="#451A03"/>
  <rect x="1120" y="470" width="10" height="90" fill="#3B0764"/>
  <rect x="1340" y="430" width="10" height="140" fill="#7F1D1D"/>
  <rect x="1560" y="460" width="10" height="100" fill="#1E3A8A"/>
  <rect x="1760" y="450" width="10" height="110" fill="#064E3B"/>
  
  <!-- Cranes and loading equipment -->
  <rect x="200" y="200" width="20" height="250" fill="#6B7280"/>
  <rect x="100" y="220" width="140" height="15" fill="#6B7280"/>
  <rect x="220" y="200" width="80" height="15" fill="#6B7280"/>
  
  <rect x="800" y="180" width="25" height="270" fill="#6B7280"/>
  <rect x="650" y="200" width="180" height="18" fill="#6B7280"/>
  <rect x="825" y="180" width="120" height="18" fill="#6B7280"/>
  
  <rect x="1400" y="160" width="30" height="290" fill="#6B7280"/>
  <rect x="1200" y="180" width="230" height="20" fill="#6B7280"/>
  <rect x="1430" y="160" width="150" height="20" fill="#6B7280"/>
  
  <!-- Ships and maritime elements -->
  <rect x="50" y="350" width="300" height="60" fill="#374151" rx="30"/>
  <rect x="70" y="330" width="40" height="20" fill="#4B5563"/>
  <rect x="130" y="320" width="50" height="30" fill="#4B5563"/>
  <rect x="200" y="315" width="60" height="35" fill="#4B5563"/>
  <rect x="280" y="325" width="45" height="25" fill="#4B5563"/>
  
  <rect x="1200" y="320" width="400" height="80" fill="#374151" rx="40"/>
  <rect x="1220" y="300" width="50" height="20" fill="#4B5563"/>
  <rect x="1290" y="290" width="60" height="30" fill="#4B5563"/>
  <rect x="1370" y="285" width="70" height="35" fill="#4B5563"/>
  <rect x="1460" y="295" width="55" height="25" fill="#4B5563"/>
  <rect x="1540" y="300" width="50" height="20" fill="#4B5563"/>
  
  <!-- Global connectivity lines -->
  <path d="M200,100 Q500,50 800,100 Q1200,150 1600,100" stroke="#F59E0B" stroke-width="6" fill="none" opacity="0.8"/>
  <path d="M300,150 Q600,200 900,150 Q1300,100 1700,150" stroke="#10B981" stroke-width="5" fill="none" opacity="0.8"/>
  <path d="M100,120 Q400,80 700,120 Q1100,170 1500,120" stroke="#3B82F6" stroke-width="4" fill="none" opacity="0.8"/>
  
  <!-- Connection nodes -->
  <circle cx="200" cy="100" r="8" fill="#F59E0B"/>
  <circle cx="800" cy="100" r="8" fill="#F59E0B"/>
  <circle cx="1600" cy="100" r="8" fill="#F59E0B"/>
  <circle cx="300" cy="150" r="7" fill="#10B981"/>
  <circle cx="900" cy="150" r="7" fill="#10B981"/>
  <circle cx="1700" cy="150" r="7" fill="#10B981"/>
  <circle cx="100" cy="120" r="6" fill="#3B82F6"/>
  <circle cx="700" cy="120" r="6" fill="#3B82F6"/>
  <circle cx="1500" cy="120" r="6" fill="#3B82F6"/>
  
  <!-- Dark overlay -->
  <rect width="1920" height="800" fill="url(#overlayGradient6)"/>
</svg>