<svg width="1920" height="800" viewBox="0 0 1920 800" xmlns="http://www.w3.org/2000/svg">
  <defs>
    <linearGradient id="heroGradient9" x1="0%" y1="0%" x2="100%" y2="100%">
      <stop offset="0%" style="stop-color:#701A75"/>
      <stop offset="100%" style="stop-color:#C026D3"/>
    </linearGradient>
    <linearGradient id="overlayGradient9" x1="0%" y1="0%" x2="100%" y2="0%">
      <stop offset="0%" style="stop-color:rgba(0,0,0,0.4)"/>
      <stop offset="100%" style="stop-color:rgba(0,0,0,0.6)"/>
    </linearGradient>
  </defs>
  <rect width="1920" height="800" fill="url(#heroGradient9)"/>
  
  <!-- Partnership and collaboration -->
  <rect x="0" y="650" width="1920" height="150" fill="#1F2937"/>
  
  <!-- Corporate buildings representing partnerships -->
  <rect x="100" y="300" width="150" height="300" fill="#1E293B" rx="15"/>
  <rect x="120" y="280" width="30" height="20" fill="#475569"/>
  <rect x="170" y="260" width="40" height="40" fill="#475569"/>
  <rect x="200" y="275" width="35" height="25" fill="#475569"/>
  
  <rect x="300" y="250" width="180" height="350" fill="#1E293B" rx="15"/>
  <rect x="320" y="230" width="35" height="20" fill="#475569"/>
  <rect x="370" y="200" width="50" height="50" fill="#475569"/>
  <rect x="430" y="220" width="40" height="30" fill="#475569"/>
  
  <rect x="530" y="280" width="160" height="320" fill="#1E293B" rx="15"/>
  <rect x="550" y="260" width="32" height="20" fill="#475569"/>
  <rect x="590" y="240" width="45" height="40" fill="#475569"/>
  <rect x="640" y="255" width="38" height="25" fill="#475569"/>
  
  <rect x="740" y="320" width="140" height="280" fill="#1E293B" rx="15"/>
  <rect x="760" y="300" width="28" height="20" fill="#475569"/>
  <rect x="800" y="285" width="40" height="35" fill="#475569"/>
  <rect x="840" y="295" width="32" height="25" fill="#475569"/>
  
  <rect x="930" y="270" width="170" height="330" fill="#1E293B" rx="15"/>
  <rect x="950" y="250" width="38" height="20" fill="#475569"/>
  <rect x="1000" y="220" width="52" height="50" fill="#475569"/>
  <rect x="1060" y="240" width="42" height="30" fill="#475569"/>
  
  <rect x="1150" y="290" width="155" height="310" fill="#1E293B" rx="15"/>
  <rect x="1170" y="270" width="30" height="20" fill="#475569"/>
  <rect x="1210" y="250" width="43" height="40" fill="#475569"/>
  <rect x="1260" y="265" width="36" height="25" fill="#475569"/>
  
  <rect x="1350" y="240" width="175" height="360" fill="#1E293B" rx="15"/>
  <rect x="1370" y="220" width="36" height="20" fill="#475569"/>
  <rect x="1420" y="190" width="48" height="50" fill="#475569"/>
  <rect x="1480" y="210" width="40" height="30" fill="#475569"/>
  
  <rect x="1570" y="300" width="145" height="300" fill="#1E293B" rx="15"/>
  <rect x="1590" y="280" width="29" height="20" fill="#475569"/>
  <rect x="1630" y="260" width="42" height="40" fill="#475569"/>
  <rect x="1680" y="275" width="35" height="25" fill="#475569"/>
  
  <rect x="1760" y="280" width="130" height="320" fill="#1E293B" rx="15"/>
  <rect x="1780" y="260" width="26" height="20" fill="#475569"/>
  <rect x="1820" y="240" width="38" height="40" fill="#475569"/>
  <rect x="1860" y="255" width="30" height="25" fill="#475569"/>
  
  <!-- Office windows with lights -->
  <rect x="130" y="350" width="15" height="20" fill="#F59E0B"/>
  <rect x="155" y="350" width="15" height="20" fill="#F59E0B"/>
  <rect x="180" y="350" width="15" height="20" fill="#F59E0B"/>
  <rect x="205" y="350" width="15" height="20" fill="#F59E0B"/>
  <rect x="130" y="390" width="15" height="20" fill="#F59E0B"/>
  <rect x="155" y="390" width="15" height="20" fill="#F59E0B"/>
  <rect x="180" y="390" width="15" height="20" fill="#F59E0B"/>
  <rect x="205" y="390" width="15" height="20" fill="#F59E0B"/>
  
  <rect x="330" y="300" width="18" height="25" fill="#F59E0B"/>
  <rect x="358" y="300" width="18" height="25" fill="#F59E0B"/>
  <rect x="386" y="300" width="18" height="25" fill="#F59E0B"/>
  <rect x="414" y="300" width="18" height="25" fill="#F59E0B"/>
  <rect x="442" y="300" width="18" height="25" fill="#F59E0B"/>
  <rect x="330" y="340" width="18" height="25" fill="#F59E0B"/>
  <rect x="358" y="340" width="18" height="25" fill="#F59E0B"/>
  <rect x="386" y="340" width="18" height="25" fill="#F59E0B"/>
  <rect x="414" y="340" width="18" height="25" fill="#F59E0B"/>
  <rect x="442" y="340" width="18" height="25" fill="#F59E0B"/>
  
  <!-- Partnership connection lines -->
  <path d="M175,200 Q300,150 425,200" stroke="#C026D3" stroke-width="6" fill="none" opacity="0.8"/>
  <path d="M425,200 Q550,120 675,200" stroke="#C026D3" stroke-width="6" fill="none" opacity="0.8"/>
  <path d="M675,200 Q800,150 925,200" stroke="#C026D3" stroke-width="6" fill="none" opacity="0.8"/>
  <path d="M925,200 Q1050,120 1175,200" stroke="#C026D3" stroke-width="6" fill="none" opacity="0.8"/>
  <path d="M1175,200 Q1300,150 1425,200" stroke="#C026D3" stroke-width="6" fill="none" opacity="0.8"/>
  <path d="M1425,200 Q1550,120 1675,200" stroke="#C026D3" stroke-width="6" fill="none" opacity="0.8"/>
  
  <!-- Handshake symbols at connection points -->
  <circle cx="300" cy="175" r="15" fill="#F59E0B"/>
  <text x="300" y="181" text-anchor="middle" font-family="Arial" font-size="12" font-weight="bold" fill="white">🤝</text>
  
  <circle cx="550" cy="145" r="15" fill="#10B981"/>
  <text x="550" y="151" text-anchor="middle" font-family="Arial" font-size="12" font-weight="bold" fill="white">🤝</text>
  
  <circle cx="800" cy="175" r="15" fill="#3B82F6"/>
  <text x="800" y="181" text-anchor="middle" font-family="Arial" font-size="12" font-weight="bold" fill="white">🤝</text>
  
  <circle cx="1050" cy="145" r="15" fill="#EF4444"/>
  <text x="1050" y="151" text-anchor="middle" font-family="Arial" font-size="12" font-weight="bold" fill="white">🤝</text>
  
  <circle cx="1300" cy="175" r="15" fill="#8B5CF6"/>
  <text x="1300" y="181" text-anchor="middle" font-family="Arial" font-size="12" font-weight="bold" fill="white">🤝</text>
  
  <circle cx="1550" cy="145" r="15" fill="#06B6D4"/>
  <text x="1550" y="151" text-anchor="middle" font-family="Arial" font-size="12" font-weight="bold" fill="white">🤝</text>
  
  <!-- Global partnership indicators -->
  <rect x="400" y="80" width="100" height="60" fill="#C026D3" rx="15"/>
  <text x="450" y="105" text-anchor="middle" font-family="Arial" font-size="16" font-weight="bold" fill="white">GLOBAL</text>
  <text x="450" y="125" text-anchor="middle" font-family="Arial" font-size="12" fill="white">PARTNERS</text>
  
  <rect x="800" y="60" width="120" height="70" fill="#059669" rx="15"/>
  <text x="860" y="90" text-anchor="middle" font-family="Arial" font-size="18" font-weight="bold" fill="white">50+</text>
  <text x="860" y="110" text-anchor="middle" font-family="Arial" font-size="12" fill="white">Countries</text>
  
  <rect x="1200" y="90" width="110" height="55" fill="#DC2626" rx="15"/>
  <text x="1255" y="115" text-anchor="middle" font-family="Arial" font-size="16" font-weight="bold" fill="white">24/7</text>
  <text x="1255" y="132" text-anchor="middle" font-family="Arial" font-size="11" fill="white">Collaboration</text>
  
  <!-- Dark overlay -->
  <rect width="1920" height="800" fill="url(#overlayGradient9)"/>
</svg>