<svg width="1920" height="800" viewBox="0 0 1920 800" xmlns="http://www.w3.org/2000/svg">
  <defs>
    <linearGradient id="heroGradient5" x1="0%" y1="0%" x2="100%" y2="100%">
      <stop offset="0%" style="stop-color:#0F766E"/>
      <stop offset="100%" style="stop-color:#14B8A6"/>
    </linearGradient>
    <linearGradient id="overlayGradient5" x1="0%" y1="0%" x2="100%" y2="0%">
      <stop offset="0%" style="stop-color:rgba(0,0,0,0.5)"/>
      <stop offset="100%" style="stop-color:rgba(0,0,0,0.3)"/>
    </linearGradient>
  </defs>
  <rect width="1920" height="800" fill="url(#heroGradient5)"/>
  
  <!-- Sustainable manufacturing and recycling -->
  <rect x="0" y="650" width="1920" height="150" fill="#1F2937"/>
  
  <!-- Recycling symbols and eco-friendly elements -->
  <circle cx="300" cy="300" r="80" fill="#059669" opacity="0.8"/>
  <text x="300" y="315" text-anchor="middle" font-family="Arial" font-size="48" font-weight="bold" fill="white">♻</text>
  
  <circle cx="700" cy="250" r="70" fill="#059669" opacity="0.8"/>
  <text x="700" y="262" text-anchor="middle" font-family="Arial" font-size="42" font-weight="bold" fill="white">♻</text>
  
  <circle cx="1200" cy="320" r="85" fill="#059669" opacity="0.8"/>
  <text x="1200" y="337" text-anchor="middle" font-family="Arial" font-size="50" font-weight="bold" fill="white">♻</text>
  
  <circle cx="1600" cy="280" r="75" fill="#059669" opacity="0.8"/>
  <text x="1600" y="295" text-anchor="middle" font-family="Arial" font-size="45" font-weight="bold" fill="white">♻</text>
  
  <!-- Solar panels -->
  <rect x="100" y="400" width="200" height="120" fill="#1E40AF" rx="10"/>
  <rect x="350" y="420" width="180" height="100" fill="#1E40AF" rx="10"/>
  <rect x="580" y="410" width="190" height="110" fill="#1E40AF" rx="10"/>
  <rect x="820" y="430" width="170" height="90" fill="#1E40AF" rx="10"/>
  <rect x="1040" y="400" width="200" height="120" fill="#1E40AF" rx="10"/>
  <rect x="1290" y="440" width="160" height="80" fill="#1E40AF" rx="10"/>
  <rect x="1500" y="420" width="180" height="100" fill="#1E40AF" rx="10"/>
  <rect x="1730" y="410" width="150" height="110" fill="#1E40AF" rx="10"/>
  
  <!-- Grid lines on solar panels -->
  <line x1="120" y1="420" x2="280" y2="420" stroke="#3B82F6" stroke-width="2"/>
  <line x1="120" y1="440" x2="280" y2="440" stroke="#3B82F6" stroke-width="2"/>
  <line x1="120" y1="460" x2="280" y2="460" stroke="#3B82F6" stroke-width="2"/>
  <line x1="120" y1="480" x2="280" y2="480" stroke="#3B82F6" stroke-width="2"/>
  <line x1="120" y1="500" x2="280" y2="500" stroke="#3B82F6" stroke-width="2"/>
  
  <!-- Wind turbines -->
  <circle cx="500" cy="200" r="12" fill="#374151"/>
  <polygon points="500,188 480,130 520,130" fill="#E5E7EB"/>
  <polygon points="512,200 560,220 560,180" fill="#E5E7EB"/>
  <polygon points="488,200 440,220 440,180" fill="#E5E7EB"/>
  
  <circle cx="900" cy="180" r="15" fill="#374151"/>
  <polygon points="900,165 875,100 925,100" fill="#E5E7EB"/>
  <polygon points="915,180 970,205 970,155" fill="#E5E7EB"/>
  <polygon points="885,180 830,205 830,155" fill="#E5E7EB"/>
  
  <!-- Green technology indicators -->
  <rect x="200" y="550" width="60" height="60" fill="#10B981" rx="30"/>
  <text x="230" y="587" text-anchor="middle" font-family="Arial" font-size="24" font-weight="bold" fill="white">ECO</text>
  
  <rect x="400" y="560" width="80" height="50" fill="#10B981" rx="25"/>
  <text x="440" y="590" text-anchor="middle" font-family="Arial" font-size="16" font-weight="bold" fill="white">GREEN</text>
  
  <rect x="600" y="570" width="70" height="40" fill="#10B981" rx="20"/>
  <text x="635" y="593" text-anchor="middle" font-family="Arial" font-size="14" font-weight="bold" fill="white">CLEAN</text>
  
  <!-- Dark overlay -->
  <rect width="1920" height="800" fill="url(#overlayGradient5)"/>
</svg>