<svg width="1920" height="800" viewBox="0 0 1920 800" xmlns="http://www.w3.org/2000/svg">
  <defs>
    <linearGradient id="heroGradient4" x1="0%" y1="0%" x2="100%" y2="100%">
      <stop offset="0%" style="stop-color:#581C87"/>
      <stop offset="100%" style="stop-color:#A855F7"/>
    </linearGradient>
    <linearGradient id="overlayGradient4" x1="0%" y1="0%" x2="100%" y2="0%">
      <stop offset="0%" style="stop-color:rgba(0,0,0,0.3)"/>
      <stop offset="100%" style="stop-color:rgba(0,0,0,0.5)"/>
    </linearGradient>
  </defs>
  <rect width="1920" height="800" fill="url(#heroGradient4)"/>
  
  <!-- Advanced automation and robotics -->
  <rect x="0" y="650" width="1920" height="150" fill="#1F2937"/>
  
  <!-- Robotic arms -->
  <rect x="200" y="400" width="30" height="200" fill="#6B7280" rx="15"/>
  <rect x="185" y="450" width="60" height="20" fill="#6B7280" rx="10"/>
  <rect x="170" y="420" width="90" height="30" fill="#6B7280" rx="15"/>
  <circle cx="215" cy="380" r="20" fill="#374151"/>
  
  <rect x="500" y="350" width="35" height="250" fill="#6B7280" rx="17"/>
  <rect x="482" y="400" width="70" height="25" fill="#6B7280" rx="12"/>
  <rect x="465" y="370" width="105" height="30" fill="#6B7280" rx="15"/>
  <circle cx="517" cy="330" r="25" fill="#374151"/>
  
  <rect x="800" y="380" width="32" height="220" fill="#6B7280" rx="16"/>
  <rect x="784" y="430" width="64" height="22" fill="#6B7280" rx="11"/>
  <rect x="768" y="400" width="96" height="30" fill="#6B7280" rx="15"/>
  <circle cx="816" cy="360" r="22" fill="#374151"/>
  
  <rect x="1200" y="370" width="38" height="230" fill="#6B7280" rx="19"/>
  <rect x="1181" y="420" width="76" height="28" fill="#6B7280" rx="14"/>
  <rect x="1162" y="390" width="114" height="35" fill="#6B7280" rx="17"/>
  <circle cx="1219" cy="350" r="28" fill="#374151"/>
  
  <!-- Conveyor systems -->
  <rect x="100" y="580" width="1720" height="40" fill="#4B5563"/>
  <rect x="120" y="590" width="80" height="20" fill="#E5E7EB"/>
  <rect x="220" y="590" width="100" height="20" fill="#E5E7EB"/>
  <rect x="340" y="590" width="90" height="20" fill="#E5E7EB"/>
  <rect x="450" y="590" width="120" height="20" fill="#E5E7EB"/>
  <rect x="590" y="590" width="85" height="20" fill="#E5E7EB"/>
  <rect x="695" y="590" width="110" height="20" fill="#E5E7EB"/>
  <rect x="825" y="590" width="95" height="20" fill="#E5E7EB"/>
  <rect x="940" y="590" width="130" height="20" fill="#E5E7EB"/>
  <rect x="1090" y="590" width="100" height="20" fill="#E5E7EB"/>
  <rect x="1210" y="590" width="90" height="20" fill="#E5E7EB"/>
  <rect x="1320" y="590" width="115" height="20" fill="#E5E7EB"/>
  <rect x="1455" y="590" width="105" height="20" fill="#E5E7EB"/>
  <rect x="1580" y="590" width="120" height="20" fill="#E5E7EB"/>
  <rect x="1720" y="590" width="80" height="20" fill="#E5E7EB"/>
  
  <!-- Control screens and interfaces -->
  <rect x="300" y="250" width="120" height="80" fill="#1F2937" rx="10"/>
  <rect x="600" y="220" width="140" height="90" fill="#1F2937" rx="10"/>
  <rect x="900" y="240" width="130" height="85" fill="#1F2937" rx="10"/>
  <rect x="1300" y="210" width="150" height="100" fill="#1F2937" rx="10"/>
  
  <!-- Screen content simulation -->
  <rect x="310" y="260" width="100" height="60" fill="#059669" opacity="0.8"/>
  <rect x="610" y="230" width="120" height="70" fill="#3B82F6" opacity="0.8"/>
  <rect x="910" y="250" width="110" height="65" fill="#F59E0B" opacity="0.8"/>
  <rect x="1310" y="220" width="130" height="80" fill="#EF4444" opacity="0.8"/>
  
  <!-- Status indicators -->
  <circle cx="330" cy="280" r="5" fill="#10B981"/>
  <circle cx="350" cy="280" r="5" fill="#10B981"/>
  <circle cx="370" cy="280" r="5" fill="#F59E0B"/>
  <circle cx="390" cy="280" r="5" fill="#10B981"/>
  
  <circle cx="630" cy="250" r="6" fill="#10B981"/>
  <circle cx="655" cy="250" r="6" fill="#10B981"/>
  <circle cx="680" cy="250" r="6" fill="#10B981"/>
  <circle cx="705" cy="250" r="6" fill="#EF4444"/>
  
  <!-- Sensor arrays -->
  <rect x="150" y="300" width="15" height="60" fill="#9CA3AF"/>
  <rect x="350" y="320" width="15" height="60" fill="#9CA3AF"/>
  <rect x="550" y="310" width="15" height="60" fill="#9CA3AF"/>
  <rect x="750" y="330" width="15" height="60" fill="#9CA3AF"/>
  <rect x="950" y="300" width="15" height="60" fill="#9CA3AF"/>
  <rect x="1150" y="320" width="15" height="60" fill="#9CA3AF"/>
  <rect x="1350" y="310" width="15" height="60" fill="#9CA3AF"/>
  <rect x="1550" y="300" width="15" height="60" fill="#9CA3AF"/>
  <rect x="1750" y="320" width="15" height="60" fill="#9CA3AF"/>
  
  <!-- Sensor lights -->
  <circle cx="157" cy="280" r="3" fill="#10B981"/>
  <circle cx="357" cy="300" r="3" fill="#10B981"/>
  <circle cx="557" cy="290" r="3" fill="#EF4444"/>
  <circle cx="757" cy="310" r="3" fill="#10B981"/>
  <circle cx="957" cy="280" r="3" fill="#F59E0B"/>
  <circle cx="1157" cy="300" r="3" fill="#10B981"/>
  <circle cx="1357" cy="290" r="3" fill="#10B981"/>
  <circle cx="1557" cy="280" r="3" fill="#10B981"/>
  <circle cx="1757" cy="300" r="3" fill="#10B981"/>
  
  <!-- Dark overlay -->
  <rect width="1920" height="800" fill="url(#overlayGradient4)"/>
</svg>